<?xml version="1.0" encoding="UTF-8" standalone="no"?>
<!DOCTYPE svg PUBLIC "-//W3C//DTD SVG 1.1//EN"
 "http://www.w3.org/Graphics/SVG/1.1/DTD/svg11.dtd">
<!-- Generated by graphviz version 2.26.3 (20100126.1600)
 -->
<!-- Title: Resources Pages: 1 -->
<svg width="906pt" height="211pt"
 viewBox="0.00 0.00 906.00 211.00" xmlns="http://www.w3.org/2000/svg" xmlns:xlink="http://www.w3.org/1999/xlink">
<g id="graph1" class="graph" transform="scale(1 1) rotate(0) translate(4 207)">
<title>Resources</title>
<polygon fill="white" stroke="white" points="-4,5 -4,-207 903,-207 903,5 -4,5"/>
<text text-anchor="middle" x="449" y="-6.4" font-family="Times,serif" font-size="14.00">Resources</text>
<!-- Filebucket[puppet] -->
<g id="node1" class="node"><title>Filebucket[puppet]</title>
<ellipse fill="none" stroke="black" cx="47" cy="-185" rx="47.0799" ry="18"/>
<text text-anchor="middle" x="47" y="-182.3" font-family="Times,serif" font-size="8.00">Filebucket[puppet]</text>
</g>
<!-- Schedule[never] -->
<g id="node2" class="node"><title>Schedule[never]</title>
<ellipse fill="none" stroke="black" cx="153" cy="-185" rx="40.9088" ry="18"/>
<text text-anchor="middle" x="153" y="-182.3" font-family="Times,serif" font-size="8.00">Schedule[never]</text>
</g>
<!-- Class[Main] -->
<g id="node3" class="node"><title>Class[Main]</title>
<ellipse fill="none" stroke="black" cx="132" cy="-113" rx="32.8992" ry="18"/>
<text text-anchor="middle" x="132" y="-110.3" font-family="Times,serif" font-size="8.00">Class[Main]</text>
</g>
<!-- Node[barn2.magpie.lan] -->
<g id="node12" class="node"><title>Node[barn2.magpie.lan]</title>
<ellipse fill="none" stroke="black" cx="116" cy="-41" rx="57.8573" ry="18"/>
<text text-anchor="middle" x="116" y="-38.3" font-family="Times,serif" font-size="8.00">Node[barn2.magpie.lan]</text>
</g>
<!-- Class[Main]&#45;&gt;Node[barn2.magpie.lan] -->
<g id="edge4" class="edge"><title>Class[Main]&#45;&gt;Node[barn2.magpie.lan]</title>
<path fill="none" stroke="black" d="M127.963,-94.8314C126.251,-87.131 124.217,-77.9743 122.315,-69.4166"/>
<polygon fill="black" stroke="black" points="125.678,-68.4159 120.092,-59.4133 118.845,-69.9344 125.678,-68.4159"/>
</g>
<!-- Schedule[puppet] -->
<g id="node4" class="node"><title>Schedule[puppet]</title>
<ellipse fill="none" stroke="black" cx="340" cy="-185" rx="44.2438" ry="18"/>
<text text-anchor="middle" x="340" y="-182.3" font-family="Times,serif" font-size="8.00">Schedule[puppet]</text>
</g>
<!-- Schedule[monthly] -->
<g id="node5" class="node"><title>Schedule[monthly]</title>
<ellipse fill="none" stroke="black" cx="449" cy="-185" rx="47.0799" ry="18"/>
<text text-anchor="middle" x="449" y="-182.3" font-family="Times,serif" font-size="8.00">Schedule[monthly]</text>
</g>
<!-- Schedule[daily] -->
<g id="node6" class="node"><title>Schedule[daily]</title>
<ellipse fill="none" stroke="black" cx="554" cy="-185" rx="39.776" ry="18"/>
<text text-anchor="middle" x="554" y="-182.3" font-family="Times,serif" font-size="8.00">Schedule[daily]</text>
</g>
<!-- Exec[/usr/bin/whoami] -->
<g id="node7" class="node"><title>Exec[/usr/bin/whoami]</title>
<ellipse fill="none" stroke="black" cx="245" cy="-41" rx="52.7522" ry="18"/>
<text text-anchor="middle" x="245" y="-38.3" font-family="Times,serif" font-size="8.00">Exec[/usr/bin/whoami]</text>
</g>
<!-- Class[Settings] -->
<g id="node8" class="node"><title>Class[Settings]</title>
<ellipse fill="none" stroke="black" cx="650" cy="-185" rx="38.0043" ry="18"/>
<text text-anchor="middle" x="650" y="-182.3" font-family="Times,serif" font-size="8.00">Class[Settings]</text>
</g>
<!-- Class[Exectesting] -->
<g id="node9" class="node"><title>Class[Exectesting]</title>
<ellipse fill="none" stroke="black" cx="245" cy="-113" rx="44.8796" ry="18"/>
<text text-anchor="middle" x="245" y="-110.3" font-family="Times,serif" font-size="8.00">Class[Exectesting]</text>
</g>
<!-- Class[Exectesting]&#45;&gt;Exec[/usr/bin/whoami] -->
<g id="edge8" class="edge"><title>Class[Exectesting]&#45;&gt;Exec[/usr/bin/whoami]</title>
<path fill="none" stroke="black" d="M245,-94.8314C245,-87.131 245,-77.9743 245,-69.4166"/>
<polygon fill="black" stroke="black" points="248.5,-69.4132 245,-59.4133 241.5,-69.4133 248.5,-69.4132"/>
</g>
<!-- File[/etc/motd] -->
<g id="node10" class="node"><title>File[/etc/motd]</title>
<ellipse fill="none" stroke="black" cx="353" cy="-41" rx="36.9379" ry="18"/>
<text text-anchor="middle" x="353" y="-38.3" font-family="Times,serif" font-size="8.00">File[/etc/motd]</text>
</g>
<!-- Schedule[weekly] -->
<g id="node11" class="node"><title>Schedule[weekly]</title>
<ellipse fill="none" stroke="black" cx="750" cy="-185" rx="44.2438" ry="18"/>
<text text-anchor="middle" x="750" y="-182.3" font-family="Times,serif" font-size="8.00">Schedule[weekly]</text>
</g>
<!-- Schedule[hourly] -->
<g id="node13" class="node"><title>Schedule[hourly]</title>
<ellipse fill="none" stroke="black" cx="855" cy="-185" rx="43.1745" ry="18"/>
<text text-anchor="middle" x="855" y="-182.3" font-family="Times,serif" font-size="8.00">Schedule[hourly]</text>
</g>
<!-- Class[Motd] -->
<g id="node14" class="node"><title>Class[Motd]</title>
<ellipse fill="none" stroke="black" cx="347" cy="-113" rx="32.967" ry="18"/>
<text text-anchor="middle" x="347" y="-110.3" font-family="Times,serif" font-size="8.00">Class[Motd]</text>
</g>
<!-- Class[Motd]&#45;&gt;File[/etc/motd] -->
<g id="edge12" class="edge"><title>Class[Motd]&#45;&gt;File[/etc/motd]</title>
<path fill="none" stroke="black" d="M348.514,-94.8314C349.156,-87.131 349.919,-77.9743 350.632,-69.4166"/>
<polygon fill="black" stroke="black" points="354.123,-69.6694 351.466,-59.4133 347.147,-69.088 354.123,-69.6694"/>
</g>
<!-- Stage[main] -->
<g id="node15" class="node"><title>Stage[main]</title>
<ellipse fill="none" stroke="black" cx="245" cy="-185" rx="32.967" ry="18"/>
<text text-anchor="middle" x="245" y="-182.3" font-family="Times,serif" font-size="8.00">Stage[main]</text>
</g>
<!-- Stage[main]&#45;&gt;Class[Main] -->
<g id="edge2" class="edge"><title>Stage[main]&#45;&gt;Class[Main]</title>
<path fill="none" stroke="black" d="M223.48,-171.288C206.154,-160.249 181.594,-144.6 162.283,-132.296"/>
<polygon fill="black" stroke="black" points="164.14,-129.328 153.825,-126.906 160.378,-135.232 164.14,-129.328"/>
</g>
<!-- Stage[main]&#45;&gt;Class[Exectesting] -->
<g id="edge6" class="edge"><title>Stage[main]&#45;&gt;Class[Exectesting]</title>
<path fill="none" stroke="black" d="M245,-166.831C245,-159.131 245,-149.974 245,-141.417"/>
<polygon fill="black" stroke="black" points="248.5,-141.413 245,-131.413 241.5,-141.413 248.5,-141.413"/>
</g>
<!-- Stage[main]&#45;&gt;Class[Motd] -->
<g id="edge10" class="edge"><title>Stage[main]&#45;&gt;Class[Motd]</title>
<path fill="none" stroke="black" d="M265.641,-170.43C280.81,-159.722 301.612,-145.038 318.385,-133.199"/>
<polygon fill="black" stroke="black" points="320.586,-135.929 326.738,-127.303 316.549,-130.21 320.586,-135.929"/>
</g>
</g>
</svg>
